<mxfile host="app.diagrams.net" agent="Mozilla/5.0 (Macintosh; Intel Mac OS X 10_15_7) AppleWebKit/537.36 (KHTML, like Gecko) Chrome/136.0.0.0 Safari/537.36" version="27.1.4">
  <diagram name="第 1 页" id="CYWFyeTTD18o7dz-RvWD">
    <mxGraphModel dx="1720" dy="911" grid="1" gridSize="10" guides="1" tooltips="1" connect="1" arrows="1" fold="1" page="1" pageScale="1" pageWidth="827" pageHeight="1169" math="0" shadow="0">
      <root>
        <mxCell id="0" />
        <mxCell id="1" parent="0" />
        <mxCell id="sQBODwW05UsRM0GQb3XB-1" style="edgeStyle=orthogonalEdgeStyle;curved=1;rounded=0;orthogonalLoop=1;jettySize=auto;html=1;" edge="1" parent="1" source="t3GGmba1jLIic4xetswU-1" target="t3GGmba1jLIic4xetswU-3">
          <mxGeometry relative="1" as="geometry" />
        </mxCell>
        <mxCell id="sQBODwW05UsRM0GQb3XB-2" style="edgeStyle=orthogonalEdgeStyle;curved=1;rounded=0;orthogonalLoop=1;jettySize=auto;html=1;" edge="1" parent="1" source="t3GGmba1jLIic4xetswU-1" target="t3GGmba1jLIic4xetswU-4">
          <mxGeometry relative="1" as="geometry" />
        </mxCell>
        <mxCell id="sQBODwW05UsRM0GQb3XB-4" style="edgeStyle=orthogonalEdgeStyle;curved=1;rounded=0;orthogonalLoop=1;jettySize=auto;html=1;entryX=1;entryY=0.5;entryDx=0;entryDy=0;" edge="1" parent="1" source="t3GGmba1jLIic4xetswU-1" target="t3GGmba1jLIic4xetswU-5">
          <mxGeometry relative="1" as="geometry">
            <Array as="points">
              <mxPoint x="490" y="110" />
              <mxPoint x="490" y="350" />
            </Array>
          </mxGeometry>
        </mxCell>
        <mxCell id="t3GGmba1jLIic4xetswU-1" value="劳动性收入" style="whiteSpace=wrap;html=1;" parent="1" vertex="1">
          <mxGeometry x="160" y="80" width="240" height="60" as="geometry" />
        </mxCell>
        <mxCell id="t3GGmba1jLIic4xetswU-3" value="资产" style="whiteSpace=wrap;html=1;" parent="1" vertex="1">
          <mxGeometry x="160" y="200" width="180" height="60" as="geometry" />
        </mxCell>
        <mxCell id="t3GGmba1jLIic4xetswU-4" value="负债" style="whiteSpace=wrap;html=1;" parent="1" vertex="1">
          <mxGeometry x="340" y="200" width="60" height="60" as="geometry" />
        </mxCell>
        <mxCell id="t3GGmba1jLIic4xetswU-5" value="家庭日常支出" style="whiteSpace=wrap;html=1;" parent="1" vertex="1">
          <mxGeometry x="160" y="320" width="240" height="60" as="geometry" />
        </mxCell>
        <mxCell id="sQBODwW05UsRM0GQb3XB-15" style="edgeStyle=orthogonalEdgeStyle;curved=1;rounded=0;orthogonalLoop=1;jettySize=auto;html=1;" edge="1" parent="1" source="sQBODwW05UsRM0GQb3XB-8" target="sQBODwW05UsRM0GQb3XB-11">
          <mxGeometry relative="1" as="geometry" />
        </mxCell>
        <mxCell id="sQBODwW05UsRM0GQb3XB-8" value="劳动性收入" style="whiteSpace=wrap;html=1;" vertex="1" parent="1">
          <mxGeometry x="760" y="120" width="90" height="60" as="geometry" />
        </mxCell>
        <mxCell id="sQBODwW05UsRM0GQb3XB-16" style="edgeStyle=orthogonalEdgeStyle;curved=1;rounded=0;orthogonalLoop=1;jettySize=auto;html=1;entryX=0.5;entryY=0;entryDx=0;entryDy=0;" edge="1" parent="1" source="sQBODwW05UsRM0GQb3XB-9" target="sQBODwW05UsRM0GQb3XB-11">
          <mxGeometry relative="1" as="geometry" />
        </mxCell>
        <mxCell id="sQBODwW05UsRM0GQb3XB-9" value="资产" style="whiteSpace=wrap;html=1;" vertex="1" parent="1">
          <mxGeometry x="850" y="120" width="180" height="60" as="geometry" />
        </mxCell>
        <mxCell id="sQBODwW05UsRM0GQb3XB-11" value="家庭日常支出" style="whiteSpace=wrap;html=1;" vertex="1" parent="1">
          <mxGeometry x="760" y="240" width="270" height="60" as="geometry" />
        </mxCell>
        <mxCell id="sQBODwW05UsRM0GQb3XB-12" value="" style="shape=flexArrow;endArrow=classic;html=1;rounded=0;curved=1;" edge="1" parent="1">
          <mxGeometry width="50" height="50" relative="1" as="geometry">
            <mxPoint x="570" y="220" as="sourcePoint" />
            <mxPoint x="660" y="220" as="targetPoint" />
          </mxGeometry>
        </mxCell>
        <mxCell id="sQBODwW05UsRM0GQb3XB-19" style="edgeStyle=orthogonalEdgeStyle;curved=1;rounded=0;orthogonalLoop=1;jettySize=auto;html=1;entryX=0.5;entryY=0;entryDx=0;entryDy=0;" edge="1" parent="1" source="sQBODwW05UsRM0GQb3XB-20" target="sQBODwW05UsRM0GQb3XB-22">
          <mxGeometry relative="1" as="geometry" />
        </mxCell>
        <mxCell id="sQBODwW05UsRM0GQb3XB-20" value="资产" style="whiteSpace=wrap;html=1;" vertex="1" parent="1">
          <mxGeometry x="1280" y="120" width="270" height="60" as="geometry" />
        </mxCell>
        <mxCell id="sQBODwW05UsRM0GQb3XB-22" value="家庭日常支出" style="whiteSpace=wrap;html=1;" vertex="1" parent="1">
          <mxGeometry x="1280" y="240" width="270" height="60" as="geometry" />
        </mxCell>
        <mxCell id="sQBODwW05UsRM0GQb3XB-24" value="" style="shape=flexArrow;endArrow=classic;html=1;rounded=0;curved=1;" edge="1" parent="1">
          <mxGeometry width="50" height="50" relative="1" as="geometry">
            <mxPoint x="1110" y="210" as="sourcePoint" />
            <mxPoint x="1200" y="210" as="targetPoint" />
          </mxGeometry>
        </mxCell>
        <mxCell id="sQBODwW05UsRM0GQb3XB-25" value="资产积累初阶，劳动性收入为主要来源" style="text;html=1;align=center;verticalAlign=middle;resizable=0;points=[];autosize=1;strokeColor=none;fillColor=none;" vertex="1" parent="1">
          <mxGeometry x="165" y="20" width="230" height="30" as="geometry" />
        </mxCell>
        <mxCell id="sQBODwW05UsRM0GQb3XB-26" value="资产持续积累，劳动性收入为辅，资产性收入为主" style="text;html=1;align=center;verticalAlign=middle;resizable=0;points=[];autosize=1;strokeColor=none;fillColor=none;" vertex="1" parent="1">
          <mxGeometry x="750" y="30" width="290" height="30" as="geometry" />
        </mxCell>
        <mxCell id="sQBODwW05UsRM0GQb3XB-27" value="财务自由，资产性收入覆盖支出" style="text;html=1;align=center;verticalAlign=middle;resizable=0;points=[];autosize=1;strokeColor=none;fillColor=none;" vertex="1" parent="1">
          <mxGeometry x="1320" y="38" width="190" height="30" as="geometry" />
        </mxCell>
      </root>
    </mxGraphModel>
  </diagram>
</mxfile>
